<svg xmlns="http://www.w3.org/2000/svg" width="256" height="256"><path fill-opacity=".016" d="M0 128.004v128.004l128.25-.254 128.25-.254.254-127.75L257.008 0H0v128.004m.485.496c0 70.4.119 99.053.265 63.672.146-35.38.146-92.98 0-128C.604 29.153.485 58.1.485 128.5" fill="#1976D2" fill-rule="evenodd"/><path fill-opacity=".195" d="M113 .668C95.059 3.509 83.799 7.041 69.625 14.275 35.491 31.694 10.81 63.959 2.518 102c-2.602 11.937-3.111 33.738-1.077 46.113 4.516 27.473 16.411 50.704 36.059 70.423C62.209 243.335 92.805 256 128 256c35.177 0 65.704-12.632 90.536-37.464 19-19 30.715-41.239 36.104-68.536 1.943-9.846 2.926-33.458 1.516-36.457-.528-1.123-1.512-5.403-2.188-9.51-3.919-23.842-16.731-47.899-35.432-66.533C193.634 12.687 162.129-.254 127.574.136 120.933.211 114.375.45 113 .668m25 16.98c12.72 1.504 33.292 7.681 35.177 10.563.464.709.595 2.339.293 3.623-.348 1.475-.168 2.097.49 1.691 1.64-1.014 1.214-5.063-.71-6.749-5.446-4.776-18.502-8.822-29.75-9.222-4.95-.176-7.425-.133-5.5.094m-31.146 13.74c-6.73 2.376-18.321 8.478-17.556 9.243.229.229 5.427-1.844 11.551-4.607 6.125-2.763 11.701-5.031 12.393-5.039.692-.009 1.933-.452 2.758-.985 2.842-1.837-2.162-1.077-9.146 1.388m-38.948 7.188c-3.627 1.935-8.127 4.84-10 6.455-2.355 2.03-.219 1.118 6.919-2.955 5.678-3.241 10.591-6.158 10.916-6.484 1.488-1.488-1.8-.236-7.835 2.984M50.517 51.75c-6.072 6.059-12.595 17.76-16.48 29.564-3.199 9.72-1.834 9.376 1.97-.496 5.512-14.305 8.49-20.129 13.33-26.068 5.09-6.245 5.514-7.325 1.18-3M151 66.054c-1.579.539.08.641 4.5.277 3.85-.318 7.188-.747 7.417-.954.822-.744-9.47-.159-11.917.677m42.5-.335c1.1.268 6.05 1.779 11 3.357 13.027 4.153 18.965 9.755 24.846 23.44 1.415 3.291 2.578 5.309 2.586 4.484.025-2.686-5.648-14.854-8.755-18.776-1.666-2.104-5.202-5.008-7.857-6.453-5.126-2.79-18.422-6.849-21.8-6.655-2.003.115-2.003.12-.02.603M99.286 79.494c-8.48 4.242-16.388 12.227-19.84 20.031-2.895 6.547-3.213 9.751-.394 3.975 4.291-8.794 9.053-13.499 20.866-20.619 8.343-5.027 10.736-6.881 8.885-6.881-1.394 0-5.677 1.572-9.517 3.494m32.214 2.113l-4 1.398 4-.594c4.162-.618 8.532-2.426 5.5-2.276-.825.041-3.3.704-5.5 1.472m-92.459 18.786c-.922 2.424-2.419 10.951-1.6 9.107.245-.55 1.121-3.362 1.948-6.25 1.53-5.345 1.304-7.203-.348-2.857M234.106 106c-.012.825.63 3.975 1.427 7l1.448 5.5-.572-4.882c-.572-4.892-2.263-10.483-2.303-7.618m-87.856 2.031c-3.245 1.304-2.766 1.927 1.01 1.314 2.76-.448 14.89.876 28.74 3.137 6.421 1.048-.626-1.447-10-3.54-9.128-2.039-16.139-2.362-19.75-.911m-75.048 15.715c-4.333 14.924-5.485 19.921-4.942 21.444.257.72 1.858-3.19 3.557-8.69 3.042-9.841 5.693-22.324 4.908-23.108-.22-.22-1.805 4.439-3.523 10.354M.395 128.5c.001 7.7.158 10.718.348 6.706.191-4.011.189-10.311-.002-14-.192-3.688-.348-.406-.346 7.294m24.836-1.5c.394 10.272.884 13.353 2.752 17.288 1.251 2.634 2.406 4.656 2.568 4.494.564-.564-4.282-32.846-5.038-33.561-.419-.397-.546 4.904-.282 11.779m109.362-3.524c-7.445 3.061-12.508 7.102-15.174 12.113-8.788 16.518-19.374 34.712-22.535 38.733-4.03 5.126-9.558 9.924-14.227 12.349-1.564.812-2.621 1.699-2.349 1.97.944.945 10.213-4.485 13.317-7.802 3.636-3.885 12.565-17.908 20.852-32.746 7.144-12.792 10.901-17.04 19.687-22.26 3.76-2.233 6.836-4.235 6.836-4.447 0-.551.083-.578-6.407 2.09m50.018 6.283c2.102 2.828 4.003 4.96 4.225 4.739.765-.765-3.342-6.772-5.691-8.325-1.853-1.224-1.54-.46 1.466 3.586m41.549 5.094c-.088 1.294-1.964 6.202-4.169 10.907-4.227 9.021-4.577 11.072-1.146 6.71 3.022-3.842 6.317-13.332 5.866-16.892-.286-2.25-.434-2.445-.551-.725m-26.16.523c0 .272.45 1.676.999 3.122.55 1.445 1.902 7.642 3.006 13.77 1.103 6.129 2.515 11.613 3.137 12.188.828.765.949.376.451-1.456-.373-1.375-1.121-5.425-1.661-9-1.202-7.958-3.906-17.866-5.071-18.586-.474-.293-.861-.31-.861-.038M72.246 156.074c-1.239 1.513-4.313 3.748-6.831 4.967-3.8 1.84-5.711 2.128-11.246 1.698-3.668-.284-7.53-.869-8.583-1.298-1.288-.525-1.693-.423-1.238.313 1.089 1.763 10.763 4.602 15.73 4.617 5.566.017 10.638-2.721 13.215-7.132 2.592-4.44 1.846-6.697-1.047-3.165m72.119 2.974c-3.677.765-7.683 3.48-11.865 8.041l-3 3.271 4.5-3.548c6.175-4.869 8.764-6.126 14-6.799 3.544-.456 3.969-.689 2-1.098-1.375-.286-3.911-.226-5.635.133m75.295 9.421c-5.485 6.353-10.828 8.661-15.75 6.803-3.624-1.368-3.757-.084-.275 2.655 1.537 1.21 4.108 2.073 6.171 2.073 2.868 0 4.308-.813 7.615-4.299 4.278-4.508 9.331-12.701 7.834-12.701-.481 0-2.998 2.461-5.595 5.469m-63.863 5.037c2.364 2.052 5.622 6.04 7.241 8.863 2.241 3.907 2.945 4.587 2.953 2.849.024-5.914-5.638-12.862-11.991-14.715-2.042-.595-1.713-.046 1.797 3.003m-92.076 11.572c-2.054 1.693-4.221 4.056-4.817 5.25-.793 1.593-.458 1.43 1.257-.608 1.287-1.528 3.689-3.875 5.339-5.214 1.65-1.339 2.765-2.45 2.478-2.47-.287-.02-2.203 1.349-4.257 3.042m63.935 10.799c-4.69 9.971-5.81 13.236-3.291 9.596 1.847-2.67 8.803-18.638 8.327-19.114-.209-.209-2.475 4.074-5.036 9.518m49.446.54c-.056 4.354.074 7.729.289 7.5.899-.959 1.292-9.191.582-12.182-.581-2.446-.793-1.304-.871 4.682m-121.023.166c.048 1.165.285 1.402.604.605.289-.722.253-1.585-.079-1.917-.332-.332-.568.258-.525 1.312M55.158 201c0 1.375.227 1.938.504 1.25.278-.687.278-1.812 0-2.5-.277-.687-.504-.125-.504 1.25m-.056 7.054c-.133 3.32 4.549 12.689 6.996 13.998 2.259 1.209 2.557-.263.414-2.042-2.277-1.889-5.722-7.862-6.558-11.368-.677-2.84-.759-2.896-.852-.588m51.531 3.446c-4.977 5.765-4.88 7.261.196 2.991 2.337-1.967 6.033-8.491 4.81-8.491-.142 0-2.394 2.475-5.006 5.5m-34.194 4.402c.589.952 6.561 3.294 6.561 2.572 0-.487-5.597-3.474-6.509-3.474-.335 0-.358.406-.052.902M97.5 229.178c-2.2.537-7.825.736-12.5.442-8.233-.517-8.393-.486-5.097.988 7.179 3.212 17.628 2.724 22.628-1.056 2.329-1.76 1.037-1.856-5.031-.374m46.111 5.394c-.889 2.317.974 5.107 3.901 5.842 2.945.739 8.361-1.5 11.147-4.61 1.81-2.019 1.781-2.018-1.659.067-5.249 3.181-11 2.67-11-.978 0-2.293-1.553-2.501-2.389-.321" fill="#1976D2" fill-rule="evenodd"/><path fill-opacity=".287" d="M112.5 1.067C56.59 8.69 13.297 49.455 2.317 104.818c-2.389 12.047-2.374 35.735.03 47.182 10.995 52.362 48.819 90.474 100.961 101.731 11.407 2.463 37.977 2.463 49.384 0 51.747-11.172 91.43-50.948 100.804-101.039.843-4.506 1.976-10.364 2.518-13.018 1.271-6.221 1.265-18.454-.012-23.91-.548-2.345-1.682-7.95-2.518-12.456C244.169 53.144 204.048 13.091 152.5 2.499c-9.705-1.994-30.433-2.736-40-1.432m8.5 14.107c-10.241 1.46-22.083 5.908-43.308 16.27-18.312 8.94-20.181 10.107-26.935 16.831C41.84 57.153 35.929 68.008 30.215 86c-6.514 20.509-7.501 26.312-7.024 41.311.385 12.103.658 13.67 3.324 19.037 4.169 8.391 9.6 14.092 16.788 17.622 12.165 5.974 21.295 6.28 28.082.942 3.966-3.12 4.839-5.413 11.467-30.136 6.094-22.728 9.883-32.383 14.298-36.431 4.987-4.573 15.321-9.178 25.35-11.295 5.5-1.161 12.7-2.965 16-4.01 10.471-3.312 16.571-4.164 34-4.746 15.387-.513 17.744-.362 24.843 1.592 14.434 3.973 16.273 5.918 22.332 23.614 3.522 10.287 3.768 11.777 3.796 23l.029 12-4.76 9c-5.072 9.59-8.272 14.301-9.13 13.443-.29-.29-1.024-3.883-1.63-7.985-2.032-13.743-8.006-27.918-14.505-34.416-7.586-7.586-23.636-12.858-39.475-12.966-8.641-.06-10.204.238-17.29 3.289-10.97 4.724-21.624 11.979-25.299 17.225-1.698 2.425-6.376 10.26-10.395 17.41-14.579 25.937-17.118 29.066-26.914 33.159-15.879 6.635-21.223 13.618-21.358 27.907-.057 5.971.384 7.908 2.844 12.494 3.362 6.267 8.813 10.018 21.899 15.072 6.916 2.67 8.932 3.029 14.726 2.617 5.583-.396 7.854-1.158 13.5-4.528 11.371-6.788 16.069-13.083 26.017-34.862 6.713-14.699 10.313-20.053 14.729-21.91 2.457-1.033 3.483-1.013 5.652.109 5.59 2.89 11.223 11.817 12.397 19.647 1.276 8.506-5.44 24.118-13.096 30.443-9.06 7.486-10.412 9.07-10.412 12.202 0 3.506 3.907 7.15 7.667 7.15 7.964 0 19.356-10.504 25.415-23.433 6.045-12.901 7.517-20.022 6.066-29.354-2.038-13.106-7.523-22.544-16.648-28.643-10.309-6.891-18.756-7.153-27.279-.847-6.917 5.118-12.232 12.825-18.798 27.259C107.338 210.146 100.129 218 89.865 218c-5.334 0-17.37-4.738-19.615-7.721-.688-.914-1.25-3.877-1.25-6.585 0-6.197 2.288-8.453 13.422-13.234 4.357-1.871 9.479-4.877 11.382-6.681 4.263-4.041 11.584-15.195 21.187-32.279 8.66-15.408 13.683-20.747 24.584-26.135 6.588-3.255 8.777-3.853 13.874-3.79 6.923.086 19.366 2.863 24.621 5.494 6.676 3.343 11.628 13.932 14.429 30.849 2.592 15.657 8.565 24.082 17.075 24.082 6.093 0 10.263-3.989 18.287-17.496 10.043-16.903 11.398-20.897 11.877-35.004.352-10.354.071-13.303-2.05-21.5-5.583-21.579-11.902-32.898-21.313-38.177-2.819-1.581-9.569-4.03-15-5.441-9.485-2.466-10.646-2.543-29.375-1.962-20.187.627-21.079.766-48 7.502-19.264 4.821-23.091 6.052-28.737 9.247C81.137 87.162 74.712 99.406 65.965 135c-1.865 7.59-4.103 14.35-5.111 15.442-1.738 1.882-1.963 1.889-7.243.225-6.276-1.979-10.905-6.535-12.587-12.39-.597-2.077-1.356-8.277-1.686-13.777-.532-8.863-.296-11.113 2.073-19.79 9.219-33.764 16.416-45.209 34.243-54.458C87.575 44.067 111.935 33.43 117 32.197c13.531-3.292 28.198-2.293 42.394 2.887 4.394 1.604 9.273 2.916 10.843 2.916 3.128 0 7.763-3.883 7.763-6.504 0-3.387-3.059-7.303-7.209-9.227-15.461-7.168-32.374-9.579-49.791-7.095M.365 128.5c.003 5.5.171 7.622.373 4.716.203-2.905.201-7.405-.004-10-.206-2.594-.371-.216-.369 5.284" fill="#1976D2" fill-rule="evenodd"/><path fill-opacity=".986" d="M105.922 2.552C59.199 11.013 20.716 44.828 6.596 89.829c-7.876 25.102-7.554 54.569.871 79.667 6.039 17.989 18.691 37.807 32.382 50.723 16.75 15.801 33.253 24.956 56.829 31.528 9.268 2.583 11.007 2.738 30.822 2.745 21.984.008 24.803-.359 40-5.211 37.957-12.12 69.661-43.824 81.781-81.781 4.852-15.197 5.219-18.016 5.211-40-.007-19.815-.162-21.554-2.745-30.822-3.546-12.722-7.723-23.068-12.92-32.003-19.012-32.688-49.831-54.551-87.073-61.77C139.983.623 117.529.45 105.922 2.552M122.5 13.077c-10.395 1.408-16.301 3.37-33.463 11.113C66.83 34.21 59.176 38.355 52.566 43.944 40.109 54.477 33.654 67.054 24.309 99c-2.523 8.624-2.781 10.976-2.794 25.5-.014 15.167.12 16.286 2.584 21.5 4.072 8.619 9.848 15.162 16.501 18.692 8.277 4.392 16.742 6.67 22.069 5.94 9.825-1.347 14.363-6.239 17.384-18.744 6.909-28.598 12.654-46.198 16.617-50.907 4.439-5.276 12.775-9.108 27.246-12.527 7.471-1.764 17.184-4.198 21.584-5.408 8.571-2.358 34.758-4.524 42-3.475 2.2.319 7.508 1.501 11.795 2.626 9.79 2.57 12.553 5.194 16.645 15.804 4.444 11.524 6.028 19.274 6.045 29.572.014 8.713-.159 9.426-4.38 18-2.417 4.91-5.103 9.827-5.968 10.927-1.518 1.93-1.575 1.884-1.605-1.303-.102-10.556-7.495-29.276-14.72-37.274-5.118-5.665-10.286-8.394-21.812-11.522-7.347-1.994-12.521-2.738-19.5-2.807-8.814-.087-10.078.162-17.5 3.452-11.599 5.142-21.996 12.356-26.433 18.341-2.085 2.812-6.406 9.838-9.603 15.613-7.934 14.334-15.189 25.955-18.242 29.223-1.4 1.498-4.835 3.472-7.633 4.386-10.124 3.307-17.113 8.615-20.834 15.823-2.558 4.954-3.592 18.501-1.822 23.864 1.553 4.706 6.141 10.917 9.148 12.384C78.158 235.01 83.919 237 90.966 237c10.486 0 24.313-9.18 32.575-21.628 2.033-3.063 6.417-11.62 9.74-19.015C139.507 182.508 145.508 174 149.052 174c2.819 0 8.882 6.614 11.694 12.757 3.39 7.404 2.821 13.166-2.392 24.256-4.079 8.676-7.015 11.982-14.253 16.05-6.501 3.654-7.913 9.63-3.512 14.86 2.177 2.587 3.297 3.077 7.04 3.077 9.833 0 20.551-9.295 27.727-24.045 6.589-13.545 8.285-21.138 6.823-30.541-2.893-18.608-17.232-34.752-32.138-36.184-11.117-1.068-22.549 8.475-30.669 25.6a24154.09 24154.09 0 00-7.912 16.704C105.894 208.301 96.824 217 90.122 217c-4.335 0-18.947-6.873-19.708-9.27-.944-2.977.474-8.548 2.706-10.627 1.115-1.039 4.806-2.902 8.202-4.14 7.296-2.66 12.217-5.662 15.739-9.6 3.533-3.948 11.523-16.549 19.632-30.958 3.744-6.651 7.711-13.212 8.816-14.578 2.959-3.659 11.384-9.445 18.101-12.433 5.123-2.279 6.801-2.549 12.89-2.078 9.048.699 20.285 4.198 23.639 7.359 4.363 4.111 8.699 14.919 10.322 25.729 3.043 20.277 11.597 30.628 22.763 27.545 5.091-1.406 10.21-7.589 17.69-21.37 10.179-18.751 10.538-19.968 10.495-35.579-.041-14.683-1.31-21.028-7.328-36.633-6.238-16.178-12.435-22.046-28.581-27.068-8.844-2.75-9.382-2.795-31-2.554-19.759.22-22.968.499-31.5 2.734-5.225 1.37-16.25 4.08-24.5 6.024-30.945 7.289-39.43 15.118-48.77 44.997-1.891 6.05-4.732 16.4-6.312 23-1.581 6.6-3.282 12.289-3.78 12.642-2.629 1.862-11.973-3.18-15.351-8.284-2.487-3.759-2.736-5.058-3.108-16.23-.393-11.791-.285-12.565 3.71-26.636 7.596-26.756 15.635-39.206 29.972-46.419 11.763-5.918 37.513-17.325 42.143-18.668 2.622-.761 9.914-1.324 17.496-1.351 12.379-.044 13.43.115 22 3.33 12.278 4.606 17.316 5.038 21.072 1.808 3.82-3.287 4.046-9.341.489-13.127-2.667-2.839-14.783-7.839-24.324-10.037-8.431-1.942-22.714-2.606-31.237-1.451" fill="#1976D2" fill-rule="evenodd"/></svg>